<svg width="20" height="20" viewBox="0 0 20 20" fill="none" xmlns="http://www.w3.org/2000/svg">
<path d="M12.5 1.66669H7.49996C7.03972 1.66669 6.66663 2.03978 6.66663 2.50002V4.16669C6.66663 4.62692 7.03972 5.00002 7.49996 5.00002H12.5C12.9602 5.00002 13.3333 4.62692 13.3333 4.16669V2.50002C13.3333 2.03978 12.9602 1.66669 12.5 1.66669Z" stroke="#155DFC" stroke-width="1.66667" stroke-linecap="round" stroke-linejoin="round"/>
<path d="M13.3334 3.33331H15C15.4421 3.33331 15.866 3.50891 16.1786 3.82147C16.4911 4.13403 16.6667 4.55795 16.6667 4.99998V16.6666C16.6667 17.1087 16.4911 17.5326 16.1786 17.8452C15.866 18.1577 15.4421 18.3333 15 18.3333H5.00004C4.55801 18.3333 4.13409 18.1577 3.82153 17.8452C3.50897 17.5326 3.33337 17.1087 3.33337 16.6666V4.99998C3.33337 4.55795 3.50897 4.13403 3.82153 3.82147C4.13409 3.50891 4.55801 3.33331 5.00004 3.33331H6.66671" stroke="#155DFC" stroke-width="1.66667" stroke-linecap="round" stroke-linejoin="round"/>
<path d="M7.5 11.6667L9.16667 13.3333L12.5 10" stroke="#155DFC" stroke-width="1.66667" stroke-linecap="round" stroke-linejoin="round"/>
</svg>
