<svg width="16" height="16" viewBox="0 0 16 16" fill="none" xmlns="http://www.w3.org/2000/svg">
<g clip-path="url(#clip0_3_1228)">
<path d="M7.34467 1.87605C7.37324 1.72312 7.45439 1.58499 7.57407 1.4856C7.69375 1.3862 7.84443 1.33179 8 1.33179C8.15558 1.33179 8.30626 1.3862 8.42594 1.4856C8.54562 1.58499 8.62677 1.72312 8.65534 1.87605L9.356 5.58138C9.40577 5.84482 9.53379 6.08713 9.72336 6.2767C9.91293 6.46627 10.1552 6.59429 10.4187 6.64405L14.124 7.34472C14.2769 7.37328 14.4151 7.45443 14.5145 7.57412C14.6139 7.6938 14.6683 7.84447 14.6683 8.00005C14.6683 8.15563 14.6139 8.3063 14.5145 8.42599C14.4151 8.54567 14.2769 8.62682 14.124 8.65538L10.4187 9.35605C10.1552 9.40581 9.91293 9.53383 9.72336 9.7234C9.53379 9.91297 9.40577 10.1553 9.356 10.4187L8.65534 14.1241C8.62677 14.277 8.54562 14.4151 8.42594 14.5145C8.30626 14.6139 8.15558 14.6683 8 14.6683C7.84443 14.6683 7.69375 14.6139 7.57407 14.5145C7.45439 14.4151 7.37324 14.277 7.34467 14.1241L6.644 10.4187C6.59424 10.1553 6.46622 9.91297 6.27665 9.7234C6.08708 9.53383 5.84477 9.40581 5.58134 9.35605L1.876 8.65538C1.72307 8.62682 1.58495 8.54567 1.48555 8.42599C1.38615 8.3063 1.33174 8.15563 1.33174 8.00005C1.33174 7.84447 1.38615 7.6938 1.48555 7.57412C1.58495 7.45443 1.72307 7.37328 1.876 7.34472L5.58134 6.64405C5.84477 6.59429 6.08708 6.46627 6.27665 6.2767C6.46622 6.08713 6.59424 5.84482 6.644 5.58138L7.34467 1.87605Z" stroke="#615FFF" stroke-width="1.33333" stroke-linecap="round" stroke-linejoin="round"/>
<path d="M13.3333 1.33337V4.00004" stroke="#615FFF" stroke-width="1.33333" stroke-linecap="round" stroke-linejoin="round"/>
<path d="M14.6667 2.66663H12" stroke="#615FFF" stroke-width="1.33333" stroke-linecap="round" stroke-linejoin="round"/>
<path d="M2.66666 14.6667C3.40304 14.6667 3.99999 14.0697 3.99999 13.3333C3.99999 12.597 3.40304 12 2.66666 12C1.93028 12 1.33333 12.597 1.33333 13.3333C1.33333 14.0697 1.93028 14.6667 2.66666 14.6667Z" stroke="#615FFF" stroke-width="1.33333" stroke-linecap="round" stroke-linejoin="round"/>
</g>
<defs>
<clipPath id="clip0_3_1228">
<rect width="16" height="16" fill="white"/>
</clipPath>
</defs>
</svg>
