<svg width="16" height="16" viewBox="0 0 16 16" fill="none" xmlns="http://www.w3.org/2000/svg">
<path d="M4 14.6667C3.64638 14.6667 3.30724 14.5262 3.05719 14.2762C2.80714 14.0261 2.66666 13.687 2.66666 13.3334V2.66671C2.66666 2.31309 2.80714 1.97395 3.05719 1.7239C3.30724 1.47385 3.64638 1.33338 4 1.33338H9.33333C9.54437 1.33303 9.75339 1.37444 9.94835 1.45522C10.1433 1.536 10.3204 1.65455 10.4693 1.80404L12.8613 4.19604C13.0112 4.34505 13.1301 4.52227 13.2111 4.71748C13.2921 4.91269 13.3337 5.12202 13.3333 5.33338V13.3334C13.3333 13.687 13.1929 14.0261 12.9428 14.2762C12.6928 14.5262 12.3536 14.6667 12 14.6667H4Z" stroke="#45556C" stroke-width="1.33333" stroke-linecap="round" stroke-linejoin="round"/>
<path d="M9.33334 1.33337V4.66671C9.33334 4.84352 9.40357 5.01309 9.5286 5.13811C9.65362 5.26314 9.82319 5.33337 10 5.33337H13.3333" stroke="#45556C" stroke-width="1.33333" stroke-linecap="round" stroke-linejoin="round"/>
<path d="M6.66667 6H5.33334" stroke="#45556C" stroke-width="1.33333" stroke-linecap="round" stroke-linejoin="round"/>
<path d="M10.6667 8.66663H5.33334" stroke="#45556C" stroke-width="1.33333" stroke-linecap="round" stroke-linejoin="round"/>
<path d="M10.6667 11.3334H5.33334" stroke="#45556C" stroke-width="1.33333" stroke-linecap="round" stroke-linejoin="round"/>
</svg>
